/vscmnt/brussel_pixiu_data/_data_brussel/112/vsc11236/PredSimResults/SUBJ11mtu3D/worker3.mot
version=1
nRows=4
nColumns=50
inDegrees=yes
endheader
                time	         pelvis_tilt	         pelvis_list	     pelvis_rotation	           pelvis_tx	           pelvis_ty	           pelvis_tz	       hip_flexion_r	     hip_adduction_r	      hip_rotation_r	        knee_angle_r	       ankle_angle_r	         mtp_angle_r	       hip_flexion_l	     hip_adduction_l	      hip_rotation_l	        knee_angle_l	       ankle_angle_l	         mtp_angle_l	    lumbar_extension	      lumbar_bending	     lumbar_rotation	 ercspn_r/activation	 intobl_r/activation	 extobl_r/activation	    abd_r/activation	    add_r/activation	hamstrings_r/activation	bifemsh_r/activation	glut_max_r/activation	iliopsoas_r/activation	rect_fem_r/activation	  vasti_r/activation	gastroc_r/activation	 soleus_r/activation	tib_ant_r/activation	 ercspn_l/activation	 intobl_l/activation	 extobl_l/activation	    abd_l/activation	    add_l/activation	hamstrings_l/activation	bifemsh_l/activation	glut_max_l/activation	iliopsoas_l/activation	rect_fem_l/activation	  vasti_l/activation	gastroc_l/activation	 soleus_l/activation	tib_ant_l/activation	
          0.00000000	         -3.74193687	         -0.70512596	          5.67989338	          0.00000000	          0.94201123	         -0.00795142	         31.30770532	         -2.52656388	         -4.74860246	         -9.67095450	          2.38502732	          0.26204836	        -13.22480395	         -2.62556083	         -2.11403196	        -11.57838341	         11.80869532	         29.13815293	        -14.17587278	         -1.48256734	         -3.73215357	          0.03210060	          0.19015332	          0.04915652	          0.00999999	          0.18270709	          0.04430382	          0.12491743	          0.08980699	          0.06710125	          0.03642991	          0.01138706	          0.00999999	          0.00999999	          0.42125696	          0.02233060	          0.01000000	          0.00999999	          0.03653353	          0.01489016	          0.01509573	          0.17879084	          0.02217125	          0.01220334	          0.01000007	          0.01000000	          0.11731335	          0.28379222	          0.01249683	
          0.01321482	         -3.81563637	         -0.75554210	          5.78544794	          0.01851904	          0.94004276	         -0.00671078	         30.96704902	         -2.39431823	         -4.92335583	        -10.84660272	          1.90242225	          0.21392667	        -13.88060971	         -2.88495418	         -2.41377333	        -12.21763369	         10.96945568	         30.89252872	        -13.72542515	         -1.04433536	         -3.96339306	          0.02630665	          0.15583184	          0.04028407	          0.05595367	          0.17245934	          0.05236997	          0.10237062	          0.10976470	          0.05498989	          0.02985454	          0.00999999	          0.01220247	          0.01220246	          0.46719702	          0.02200542	          0.00999999	          0.01000000	          0.02993945	          0.01220258	          0.02397991	          0.14652022	          0.01816949	          0.01000074	          0.01000000	          0.01000000	          0.09613902	          0.26226894	          0.01024123	
          0.02642963	         -3.87355232	         -0.79853199	          5.86586606	          0.03724156	          0.93844799	         -0.00539500	         30.62534600	         -2.28271090	         -5.10306959	        -12.06617920	          1.30345529	          0.20649867	        -14.36452840	         -3.14736761	         -2.72520118	        -13.18125011	          9.97500662	         32.71374037	        -13.26219321	         -0.61225876	         -4.18235253	          0.02968134	          0.12770517	          0.03301305	          0.10620359	          0.21582926	          0.04291754	          0.08389337	          0.13026723	          0.04506456	          0.02446599	          0.01000000	          0.01000000	          0.00999999	          0.52780636	          0.04257542	          0.00999999	          0.01000000	          0.02453557	          0.01000010	          0.01965172	          0.12007424	          0.01489001	          0.01000004	          0.01000002	          0.01000724	          0.07878653	          0.23815259	          0.00999999	
          0.03964445	         -3.91592608	         -0.82640466	          5.91918828	          0.05590114	          0.93740708	         -0.00400329	         30.40115141	         -2.19335933	         -5.29989546	        -13.48106305	          0.64397064	          0.16266584	        -14.56938238	         -3.40740294	         -3.04193569	        -14.62034852	          8.81346391	         34.58571620	        -12.81802925	         -0.19658712	         -4.38506190	          0.03963652	          0.10465518	          0.02705440	          0.13413328	          0.27034152	          0.04155907	          0.06875115	          0.13224413	          0.03693069	          0.02005003	          0.05205602	          0.00999999	          0.00999999	          0.57223496	          0.06763506	          0.00999999	          0.00999999	          0.02010705	          0.07377425	          0.02385035	          0.09840159	          0.01220246	          0.01000003	          0.01000001	          0.01000010	          0.06456606	          0.20498420	          0.00999999	
